<?xml version="1.0" encoding="UTF-8"?>
<svg width="1920px" height="456px" viewBox="0 0 1920 456" version="1.1" xmlns="http://www.w3.org/2000/svg" xmlns:xlink="http://www.w3.org/1999/xlink">
    <title>Group 3</title>
    <g id="landing-page" stroke="none" stroke-width="1" fill="none" fill-rule="evenodd">
        <g id="footer" fill-rule="nonzero">
            <g id="Group-3" transform="translate(-3.2622, -0.478)">
                <path d="M5.77810056,275.120948 C5.77810056,374.70821 184.55933,322.365417 184.55933,382.525641 C184.55933,408.697037 156.008715,418.213909 124.738994,418.213909 C82.5928492,418.213909 56.4214525,403.258825 55.0618994,370.96944 L0,370.96944 C1.0196648,421.95268 35.6882682,456.281395 123.039553,456.281395 C174.70257,456.281395 239.621229,439.966758 239.621229,377.427317 C239.621229,273.421507 58.8006704,328.823294 58.8006704,271.382177 C58.8006704,248.269775 81.2332961,238.073127 115.222123,238.073127 C157.708156,238.073127 174.70257,258.126534 176.402011,277.160278 L231.463911,277.160278 C224.666145,206.803406 150.230615,200.005641 112.842905,200.005641 C53.7023464,200.005641 5.77810056,220.738825 5.77810056,275.120948 Z M251.13142,449.483629 L302.11466,449.483629 L302.11466,339.359831 L452.685163,339.359831 L452.685163,449.483629 L503.668403,449.483629 L503.668403,206.803406 L452.685163,206.803406 L452.685163,301.292345 L302.11466,301.292345 L302.11466,206.803406 L251.13142,206.803406 L251.13142,449.483629 Z M634.093478,449.483629 L685.076719,449.483629 L685.076719,339.359831 L835.647221,339.359831 L835.647221,449.483629 L886.630462,449.483629 L886.630462,206.803406 L835.647221,206.803406 L835.647221,301.292345 L685.076719,301.292345 L685.076719,206.803406 L634.093478,206.803406 L634.093478,449.483629 Z M1289.98582,200.005641 C1373.59833,200.005641 1417.10403,243.851227 1422.54224,296.533909 L1367.48034,296.533909 C1362.04213,260.165864 1332.47185,238.073127 1289.30604,238.073127 C1242.06157,238.073127 1207.39297,269.342847 1207.39297,332.562065 C1207.39297,383.205417 1242.40146,418.213909 1292.70492,418.213909 C1345.72749,418.213909 1363.06179,382.525641 1367.48034,356.694132 L1422.54224,356.694132 C1415.40459,404.618378 1383.45509,456.281395 1283.86783,456.281395 C1195.83677,456.281395 1154.3704,396.46106 1154.3704,328.143518 C1154.3704,259.825976 1194.8171,200.005641 1289.98582,200.005641 Z M1057.54825,206.803406 L1165.63272,449.483629 L1108.87138,449.483629 L1083.37976,389.323406 L969.177301,389.323406 L944.025569,449.483629 L888.96367,449.483629 L997.048139,206.803406 L1057.54825,206.803406 Z M1026.61842,248.949551 L984.472273,351.25592 L1068.08479,351.25592 L1026.61842,248.949551 Z M1795.98743,200.005641 C1833.37514,200.005641 1907.81067,206.803406 1914.60843,277.160278 L1859.54653,277.160278 C1857.84709,258.126534 1840.85268,238.073127 1798.36665,238.073127 C1764.37782,238.073127 1741.94519,248.269775 1741.94519,271.382177 C1741.94519,328.823294 1922.76575,273.421507 1922.76575,377.427317 C1922.76575,439.966758 1857.84709,456.281395 1806.18408,456.281395 C1718.83279,456.281395 1684.16419,421.95268 1683.14452,370.96944 L1738.20642,370.96944 C1739.56597,403.258825 1765.73737,418.213909 1807.88352,418.213909 C1839.15324,418.213909 1867.70385,408.697037 1867.70385,382.525641 C1867.70385,322.365417 1688.92262,374.70821 1688.92262,275.120948 C1688.92262,220.738825 1736.84687,200.005641 1795.98743,200.005641 Z M1495.23232,206.803406 L1495.23232,319.306423 L1619.29154,206.803406 L1689.30852,206.803406 L1576.12573,305.371004 L1696.44617,449.483629 L1627.44886,449.483629 L1536.3588,337.660389 L1495.23232,374.028434 L1495.23232,449.483629 L1444.24908,449.483629 L1444.24908,206.803406 L1495.23232,206.803406 Z" id="Combined-Shape-Copy" fill="#0A0A0B"></path>
                <path d="M114.779258,0 C149.690982,0 216.906053,5.92721974 231.190215,63.9963373 L174.555967,64.0006368 C167.377289,49.8926672 149.783888,38.067486 117.158476,38.067486 C87.0286454,38.067486 65.9798658,46.0801784 61.5886217,63.9996842 L8.43101421,63.9991709 C14.6004349,17.8840239 59.8523648,0 114.779258,0 Z M304.051014,6.79776536 L304.050454,64 L253.066454,64 L253.067353,6.79776536 L304.051014,6.79776536 Z M505.604757,6.79776536 L505.604757,64 L454.621454,64 L454.621454,6.79776536 L505.604757,6.79776536 Z M687.013072,6.79776536 L687.012454,64 L636.028454,64 L636.029353,6.79776536 L687.013072,6.79776536 Z M888.566815,6.79776536 L888.566815,64 L837.583454,64 L837.583454,6.79776536 L888.566815,6.79776536 Z M1059.4846,6.79776536 L1084.96045,64 L1034.65545,64 L1028.55435,48.944 L1022.35145,64 L973.507454,64 L998.984492,6.79776536 L1059.4846,6.79776536 Z M1291.92217,0 C1357.48606,0 1398.38926,26.9595535 1415.61506,63.9993923 L1355.3531,64.0001754 C1341.68275,47.4305228 1319.3435,38.067486 1291.24239,38.067486 C1266.44995,38.067486 1245.12068,46.6786278 1230.44726,63.9991476 L1170.59698,64.0001754 C1189.73278,26.3287071 1228.78508,0 1291.92217,0 Z M1497.16867,6.79776536 L1497.16867,64 L1446.18445,64 L1446.18535,6.79776536 L1497.16867,6.79776536 Z M1691.24487,6.79776536 L1625.55945,64 L1558.14845,64 L1621.22789,6.79776536 L1691.24487,6.79776536 Z M1797.92378,0 C1832.8355,0 1900.05058,5.92721974 1914.33474,63.9963373 L1857.70049,64.0006368 C1850.52181,49.8926672 1832.92841,38.067486 1800.303,38.067486 C1770.17317,38.067486 1749.12439,46.0801784 1744.73314,63.9996842 L1691.57554,63.9991709 C1697.74496,17.8840239 1742.99689,0 1797.92378,0 Z" id="Shape" fill="#C9C9CF"></path>
                <path d="M114.032514,68.0006368 C151.420223,68.0006368 225.855754,74.7984022 232.65352,145.155274 L177.59162,145.155274 C175.892179,126.121531 158.897765,106.068123 116.411732,106.068123 C82.422905,106.068123 59.9902793,116.264771 59.9902793,139.377173 C59.9902793,183.755372 167.920086,160.77888 217.009599,195.995489 L39.503957,196.005526 C20.21795,186.078905 6.9677095,170.227517 6.9677095,143.115944 C6.9677095,88.7338212 54.8919553,68.0006368 114.032514,68.0006368 Z M303.304269,74.7984022 L303.304269,169.287341 L453.874772,169.287341 L453.874772,74.7984022 L504.858012,74.7984022 L504.858012,196.000637 L252.320609,196.000637 L252.320609,74.7984022 L303.304269,74.7984022 Z M686.266328,74.7984022 L686.266328,169.287341 L836.83683,169.287341 L836.83683,74.7984022 L887.820071,74.7984022 L887.820071,196.000637 L635.282609,196.000637 L635.282609,74.7984022 L686.266328,74.7984022 Z M1058.73786,74.7984022 L1112.71861,196.000637 L1059.84961,196.000637 L1027.80761,116.944637 L995.239609,196.000637 L944.256609,196.000637 L998.237748,74.7984022 L1058.73786,74.7984022 Z M1291.17542,68.0006368 C1374.78794,68.0006368 1418.29364,111.846223 1423.73185,164.528905 L1368.66995,164.528905 C1363.23174,128.16086 1333.66146,106.068123 1290.49565,106.068123 C1244.40073,106.068123 1210.27714,135.834643 1208.64383,195.999035 L1155.56061,196.000637 L1155.57215,194.091588 C1156.37441,126.630547 1196.9584,68.0006368 1291.17542,68.0006368 Z M1496.42193,74.7984022 L1496.42193,187.301419 L1620.48115,74.7984022 L1690.49813,74.7984022 L1577.31534,173.366 L1596.21261,196.000637 L1445.43861,196.000637 L1445.43861,74.7984022 L1496.42193,74.7984022 Z M1797.17704,68.0006368 C1834.56475,68.0006368 1909.00028,74.7984022 1915.79804,145.155274 L1860.73614,145.155274 C1859.0367,126.121531 1842.04229,106.068123 1799.55625,106.068123 C1765.56743,106.068123 1743.1348,116.264771 1743.1348,139.377173 C1743.1348,183.755294 1851.06423,160.778961 1900.15386,195.995302 L1722.6487,196.005641 C1703.36257,186.079027 1690.11223,170.227621 1690.11223,143.115944 C1690.11223,88.7338212 1738.03648,68.0006368 1797.17704,68.0006368 Z" id="Shape" fill="#C9C9CF"></path>
            </g>
        </g>
    </g>
</svg>