<?xml version="1.0" encoding="UTF-8"?>
<svg width="261px" height="261px" viewBox="0 0 261 261" version="1.1" xmlns="http://www.w3.org/2000/svg" xmlns:xlink="http://www.w3.org/1999/xlink">
    <title>Hack Club rounded icon</title>
    <defs>
        <path d="M130.5,261 C234.9,261 261,234.9 261,130.5 C261,26.1 234.9,0 130.5,0 C26.1,0 0,26.1 0,130.5 C0,234.9 26.1,261 130.5,261 Z" id="path-1"></path>
        <radialGradient cx="0%" cy="0%" fx="0%" fy="0%" r="96.0683594%" id="radialGradient-3">
            <stop stop-color="#FF8C37" offset="0%"></stop>
            <stop stop-color="#EC3750" offset="100%"></stop>
        </radialGradient>
    </defs>
    <g id="landing-page" stroke="none" stroke-width="1" fill="none" fill-rule="evenodd">
        <g id="sponsors" transform="translate(-1605, -205)">
            <g id="Group-3" transform="translate(66, 205)">
                <g id="Hack-Club-rounded-icon" transform="translate(1539, 0)">
                    <mask id="mask-2" fill="white">
                        <use xlink:href="#path-1"></use>
                    </mask>
                    <g id="Path"></g>
                    <g id="Group" mask="url(#mask-2)">
                        <path d="M130.5,261 C234.9,261 261,234.9 261,130.5 C261,26.1 234.9,0 130.5,0 C26.1,0 0,26.1 0,130.5 C0,234.9 26.1,261 130.5,261 Z" id="Path" fill="url(#radialGradient-3)"></path>
                        <path d="M117.351105,49.3128914 C117.351105,48.0504059 116.215348,47.0913328 114.97152,47.3026816 L83.2602234,52.6870301 C82.2798422,52.8534176 81.5625,53.702891 81.5625,54.6972398 L81.5625,209.090566 C81.5625,210.216129 82.4753883,211.129629 83.6015625,211.129629 L115.312043,211.129629 C116.438625,211.129629 117.351105,210.216129 117.351105,209.090566 L117.351105,151.295379 C117.351105,133.688074 126.687973,122.781129 134.468016,122.781129 C141.470156,122.781129 143.492906,129.793465 143.492906,140.388434 L143.492906,209.090566 C143.492906,210.216129 144.405387,211.129629 145.531969,211.129629 L177.398438,211.129629 C178.52502,211.129629 179.4375,210.216129 179.4375,209.090566 L179.4375,135.246938 C179.4375,111.25125 170.412609,95.8249266 146.916492,95.8249266 C137.485828,95.8249266 128.28252,98.0955246 120.950051,103.121508 C119.49416,104.119629 117.351105,103.136801 117.351105,101.370361 L117.351105,49.3128914 Z" id="Path" fill="#FFFFFF" fill-rule="nonzero"></path>
                    </g>
                </g>
            </g>
        </g>
    </g>
</svg>