<svg xmlns="http://www.w3.org/2000/svg" viewBox="0 0 710.82 554.69"><g id="图层_2" data-name="图层 2"><g id="图层_1-2" data-name="图层 1"><path d="M538.69,537.28a469.09,469.09,0,0,1-54.88-11.51,808.39,808.39,0,0,0-168.06-142,809.68,809.68,0,0,0-214-94.59c-10.08-11.11-19.56-22.44-28.26-33.8a1046,1046,0,0,0,268.8-86.68c24.09-11.59,48.09-24.36,71.32-37.92l5.05-2.94C498.19,81.6,552,50.34,604.5,0c-35.8,63.94-49.56,125.84-67.66,216.81-4.35,21.67-7.83,43.7-10.28,65.52-9.35,83.1-5.14,171.05,12.13,255"/><path d="M584.41,554.69a321.23,321.23,0,0,1-39.11-2.52,469.25,469.25,0,0,1-66.84-13.45c-70-19-145.4-53.62-218.08-100-64.82-41.4-122.82-89.45-167.74-138.93a540.42,540.42,0,0,1-36.12-43.9C1,180.47-14.26,114.94,13.6,71.36c49-76.79,221.41-56.42,401,47.38,12.4,7.15,24.55,14.52,36.1,21.91a910.33,910.33,0,0,1,97.09,71.25C679.53,323,739.68,442,697.48,508h0c-19.53,30.58-59,46.65-113.07,46.65m-458.28-514C79.27,40.68,43.89,53.43,27,79.91,3.27,117,18.7,177.73,69.32,246.48a523.72,523.72,0,0,0,35.07,42.61c44,48.48,100.89,95.58,164.53,136.24,71.35,45.52,145.25,79.43,213.72,98.06a455.29,455.29,0,0,0,64.59,13c67.77,8.3,116.36-4.82,136.86-36.92C721.22,441.35,661,328.09,537.57,224.05a893.51,893.51,0,0,0-95.41-70c-11.35-7.26-23.29-14.51-35.48-21.54C303,72.57,200.21,40.68,126.13,40.68"/></g></g></svg>